<?xml version="1.0" encoding="utf-8"?>
<!-- Generator: Adobe Illustrator 23.0.1, SVG Export Plug-In . SVG Version: 6.00 Build 0)  -->
<svg version="1.1" id="Layer_1" xmlns="http://www.w3.org/2000/svg" xmlns:xlink="http://www.w3.org/1999/xlink" x="0px" y="0px"
	 viewBox="0 0 100 100" style="enable-background:new 0 0 100 100;" xml:space="preserve">
<style type="text/css">
	.st0{display:none;}
	.st1{display:inline;fill:#F05349;}
	.st2{display:none;fill:#00BBE7;}
	.st3{display:none;fill:#00B3AA;}
	.st4{display:inline;fill:#0072BC;}
	.st5{fill:#16AB03;}
	.st6{fill:#5E33BF;}
</style>
<g class="st0">
	<path class="st1" d="M82.3,55.9L69.9,68.3c0,6.9,5.6,12.4,12.4,12.4s12.4-5.6,12.4-12.4L82.3,55.9z"/>
	<path class="st1" d="M82.3,44.1c6.9,0,12.4-5.6,12.4-12.4V19.3H69.9v12.4C69.9,38.5,75.5,44.1,82.3,44.1z"/>
	<rect x="38.2" y="1" class="st1" width="24.8" height="24.8"/>
	<polygon class="st1" points="5.3,28.8 10.2,44.1 26.4,44.1 31.4,28.8 18.3,19.3 	"/>
	<polygon class="st1" points="7.5,62.1 7.5,74.5 18.3,80.7 29.1,74.5 29.1,62.1 18.3,55.9 	"/>
	<path class="st1" d="M50.6,33.7c-9,0-16.3,7.3-16.3,16.3s7.3,16.3,16.3,16.3S66.9,59,66.9,50S59.6,33.7,50.6,33.7z"/>
	<path class="st1" d="M50.6,74.1l-10,4.8l-2.3,9.9l0,0c1,5.8,6.1,10.2,12.2,10.2s11.2-4.4,12.2-10.2l-2.2-9.9L50.6,74.1z"/>
</g>
<path class="st2" d="M50.5,54.3c1.9,0,3.4-1.5,3.4-3.4s-1.5-3.4-3.4-3.4S47,48.9,47,50.8C47,52.7,48.6,54.3,50.5,54.3 M24.8,8.4
	c-11,14-7.6,29.6-2.7,37.6c5.4,8.7,16.6,17.1,28.4,15.9c3-0.3,5.8-1.3,7.7-3.3s3-4.7,3-7.7c0-3.8-3-10.4-10.8-10.4
	C43.6,40.5,40,46.2,40,51c0,0.4,0.1,1.1,0.2,1.5c0.8,0.4,2.1,0.9,3.2,1.3c-0.6-0.8-0.8-2-0.8-2.8c0-3.8,3-7.8,7.8-7.8
	c4.7,0,7.8,3.7,7.8,7.8c0,2-0.8,4.1-2.3,5.5c-1.3,1.4-3.2,2.1-5.5,2.3c-7.9,0.7-16.2-3.8-21.3-9.4c-4.8-5.3-7.6-12.4-7.6-19.5
	C21.6,15.6,33,1,50.5,1c25.5,0,49,20.6,49,49.8c0,13.1-5.5,25.5-14.7,34.4c-8.7,8.5-20.7,13.9-34.4,13.9c-8.6,0-17.7-1.9-25.9-5.3
	c-0.3-0.1-0.2-0.6,0.2-0.5C30.6,95.4,38,98,50.5,98c11.7,0,24-5,33-14.1c7.9-8,13.3-19.2,13.3-33.1c0-24.5-19.9-45.5-46.3-45.5
	C44.2,5.3,38.1,8,34.8,11c4.8-2,9.6-3,15.7-3c22.6,0,42.2,18.6,42.2,42.9c0,10.9-4.6,21.7-12.6,29.6c-7.3,7.2-17.5,11.9-29.6,11.9
	c-9.2,0-17.7-1.9-26.8-6.4c-7.2-3.6-13.5-8.4-18.6-14c-0.2-0.3,0.1-0.6,0.4-0.3c4.8,5,10.4,9.3,16.7,12.4c8.3,4.2,18,6.6,28.2,6.6
	c9.8,0,20.2-4.2,27.9-11.8c6.7-6.8,11.3-16.3,11.3-28c0-20.1-16.3-38.5-39.2-38.5c-9.7,0-17.2,3.6-22.2,7.1
	c-0.7,1.4-1.3,3.1-1.7,4.7c4-3.4,12-9.2,23.9-9.2c19,0,35.2,15.7,35.2,35.9c0,8.6-3.7,17.9-10.6,24.7c-6,5.9-14.3,9.8-24.7,9.9
	c-9.8,0.2-20.2-3.1-28.1-7.9c-9.7-6.1-17.5-15.1-21.7-25c-0.2-0.3,0.3-0.5,0.5-0.2c4.5,9.4,11.7,17.5,20.6,23.1
	c9.5,5.9,18.7,8.1,28.9,8c8.4-0.1,16.8-3.6,22.9-9.8c5.5-5.7,9.2-13.5,9.2-22.9c0-17.1-14-31.5-32.1-31.5
	c-13.5,0-21.8,8.2-24.6,11.9c0,1.2,0.3,2.7,0.5,3.8c6.2-9.3,15.9-13,24.1-13C63,22,78.8,32,78.8,50.9c0,7.7-3.3,14.7-8.5,19.8
	c-4.6,4.6-11.1,7.6-19.8,7.9C39.4,79,29.7,75.3,20.7,67.9C10.6,59.7,4.3,48.1,2.9,35.5c-0.1-0.3,0.4-0.4,0.5-0.1
	c2.5,17.8,12.9,27.3,17.1,30.5c9.1,7.1,17.8,10.8,30,10.4c7.2-0.2,13.3-2.9,17.8-7.7c4.4-4.6,7.1-10.8,7.1-17.8
	c0-12.2-9.8-24.4-25-24.4c-12.9,0-19.9,9.3-22.1,14.1c0.4,0.8,1,2,1.6,2.9C31.5,38.3,38.5,29,50.5,29c11.7,0,21.4,9.6,21.4,21.8
	c0,5.5-2.3,11-6.4,15c-3.7,3.6-9.2,5.8-15,6.1C39.9,72.4,28.3,68,19,56.7c-8.7-10.6-11.2-24.2-8.3-36c0.1-0.3,0.5-0.2,0.5,0.1
	c-2.6,13.4,0.7,24.8,8.7,34.4c7.7,9.2,19.1,15,30.7,13.9c4.7-0.4,9.5-2.1,12.8-5.5c3.1-3.2,5.1-7.7,5.1-12.8c0-9-7.3-17.4-17.9-17.4
	c-9.6,0-15.9,7.4-17.1,14.2c0.7,0.7,1.5,1.4,2.3,2C36.2,42.3,42.6,36,50.5,36S65,42.5,65,50.8c0,3.9-1.7,7.5-4.4,10.1
	C58,63.4,54,64.7,50.5,65c-9.1,0.7-20.5-3.4-28.3-15.3c-9.7-14.6-6.5-31.8,2.3-41.6C24.7,7.9,25,8.1,24.8,8.4"/>
<path class="st3" d="M66.8,53.5l25.9,4.1c0.5,0.1,0.9-0.3,1-0.7c0.1-0.5-0.3-0.9-0.7-1l-26-4.1c-0.5-0.1-0.9,0.3-1,0.7
	C66,53,66.3,53.5,66.8,53.5 M66,56.1l20.7,6.7c0.5,0.2,0.9-0.1,1.1-0.6s-0.1-1-0.6-1.1l-20.7-6.7c-0.5-0.2-0.9,0.1-1.1,0.6
	C65.3,55.5,65.6,56,66,56.1 M75.9,68.8c0.3-0.4,0.2-0.9-0.2-1.2l-11.3-8.3c-0.4-0.3-0.9-0.2-1.2,0.2s-0.2,0.9,0.2,1.2L74.7,69
	C75.1,69.3,75.6,69.2,75.9,68.8 M64.9,58.5l17.2,8.8c0.4,0.2,0.9,0.1,1.2-0.4s0.1-0.9-0.4-1.2L65.7,57c-0.4-0.2-0.9,0-1.2,0.4
	C64.3,57.8,64.4,58.3,64.9,58.5 M64.5,42.6c0.2,0.4,0.7,0.6,1.2,0.4L85,33.1c0.4-0.2,0.6-0.7,0.4-1.2c-0.2-0.4-0.7-0.6-1.2-0.4
	l-19.4,9.9C64.4,41.7,64.3,42.2,64.5,42.6 M81.8,39.7c-0.2-0.5-0.6-0.7-1.1-0.6L66,43.9c-0.5,0.2-0.7,0.6-0.6,1.1
	c0.2,0.5,0.6,0.7,1.1,0.6l14.7-4.8C81.7,40.6,81.9,40.1,81.8,39.7 M61.5,62.7l22.1,22.1c0.3,0.3,0.9,0.3,1.2,0
	c0.3-0.3,0.3-0.9,0-1.2L62.7,61.5c-0.3-0.3-0.9-0.3-1.2,0S61.2,62.4,61.5,62.7 M59.4,64.4l18.4,25.3c0.3,0.4,0.8,0.5,1.2,0.2
	c0.4-0.3,0.5-0.8,0.2-1.2L60.8,63.4c-0.3-0.4-0.8-0.5-1.2-0.2C59.2,63.4,59.1,64,59.4,64.4 M57,65.7l14.2,27.9
	c0.2,0.4,0.7,0.6,1.2,0.4s0.6-0.7,0.4-1.2L58.5,64.9c-0.2-0.4-0.7-0.6-1.2-0.4C57,64.7,56.8,65.2,57,65.7 M54.5,66.6l9.7,29.7
	c0.2,0.5,0.6,0.7,1.1,0.6s0.7-0.6,0.6-1.1L56.1,66c-0.2-0.5-0.6-0.7-1.1-0.6C54.6,65.6,54.3,66.1,54.5,66.6 M33,46.2L2.6,41.4
	c-0.6-0.1-1.1,0.3-1.2,0.9s0.3,1.2,0.9,1.2l30.5,4.8c0.6,0.1,1.2-0.3,1.2-0.9C34,46.9,33.6,46.3,33,46.2 M34,43.9L4.2,34.2
	c-0.5-0.2-1,0.1-1.1,0.6c-0.2,0.5,0.1,1,0.6,1.1l29.7,9.7c0.5,0.2,1-0.1,1.1-0.6C34.7,44.5,34.4,44,34,43.9 M35.1,41.5L7.3,27.3
	c-0.4-0.2-0.9,0-1.2,0.4c-0.2,0.4-0.1,1,0.4,1.2L34.3,43c0.4,0.2,1,0,1.2-0.4C35.7,42.2,35.6,41.7,35.1,41.5 M36.7,39.2L11.4,20.9
	c-0.4-0.3-0.9-0.2-1.2,0.2c-0.3,0.4-0.2,0.9,0.2,1.2l25.3,18.4c0.4,0.3,0.9,0.2,1.2-0.2C37.1,40.1,37,39.5,36.7,39.2 M38.5,37.3
	L16.4,15.2c-0.3-0.3-0.9-0.3-1.2,0s-0.3,0.9,0,1.2l22.1,22.1c0.3,0.3,0.9,0.3,1.2,0S38.8,37.6,38.5,37.3 M31.2,24.1
	c-0.4,0.3-0.5,0.8-0.2,1.2l8.2,11.3c0.3,0.4,0.8,0.5,1.2,0.2s0.5-0.8,0.2-1.2l-8.2-11.3C32.2,24,31.6,23.9,31.2,24.1 M43,34.3
	l-9.3-18.2c-0.2-0.4-0.7-0.6-1.2-0.4C32.1,16,32,16.5,32.2,17l9.3,18.2c0.2,0.4,0.7,0.6,1.2,0.4C43,35.3,43.2,34.8,43,34.3
	 M45.5,33.4l-8-24.8c-0.2-0.5-0.6-0.7-1.1-0.6s-0.7,0.6-0.6,1.1L43.9,34c0.2,0.5,0.6,0.7,1.1,0.6C45.4,34.4,45.7,33.9,45.5,33.4
	 M48.2,33L43.5,3.7c-0.1-0.5-0.5-0.8-1-0.7s-0.8,0.5-0.7,1l4.6,29.2c0.1,0.5,0.5,0.8,1,0.7C47.9,33.9,48.3,33.4,48.2,33 M50.9,32.9
	V1.6c0-0.5-0.4-0.9-0.9-0.9s-0.9,0.4-0.9,0.9v31.3c0,0.5,0.4,0.9,0.9,0.9C50.5,33.7,50.9,33.3,50.9,32.9 M51.3,98V67.6
	c0-0.7-0.6-1.3-1.3-1.3s-1.2,0.5-1.3,1.1c-0.1-0.6-0.6-1.2-1.3-1.3c-0.5-0.1-1,0.1-1.4,0.5c-0.2-0.5-0.6-0.9-1.1-1.1s-1-0.1-1.4,0.1
	c-0.2-0.5-0.5-0.9-1-1.1c-0.4-0.2-0.9-0.3-1.4-0.2c-0.1-0.5-0.4-0.9-0.8-1.2c-0.4-0.3-0.8-0.4-1.3-0.4c-0.1-0.5-0.3-0.9-0.7-1.2
	c-0.3-0.3-0.8-0.6-1.2-0.7c0-0.5-0.1-0.9-0.4-1.3c-0.3-0.4-0.7-0.7-1.2-0.8c0.1-0.4,0.1-0.9-0.2-1.3c-0.2-0.5-0.7-0.8-1.1-1
	c0.2-0.4,0.3-0.9,0.1-1.4s-0.6-0.9-1.1-1.1c0.4-0.3,0.6-0.8,0.5-1.4c-0.1-0.7-0.7-1.2-1.3-1.3c0.6-0.1,1.1-0.6,1.1-1.3
	s-0.6-1.3-1.3-1.3H2c-0.7,0-1.3,0.6-1.3,1.3s0.6,1.3,1.3,1.3h30L2.6,56c-0.8,0.1-1.4,0.9-1.3,1.7S2.2,59.1,3,59l26.7-4.2L4.3,63
	c-0.9,0.3-1.4,1.3-1.1,2.2c0.3,0.9,1.3,1.4,2.2,1.1l22.9-7.4L6.9,69.7c-1,0.5-1.3,1.7-0.8,2.6s1.7,1.3,2.6,0.8l18.8-9.6L10.6,75.9
	c-1,0.7-1.2,2.1-0.5,3s2.1,1.2,3,0.5l14.6-10.6L15.2,81.5c-0.9,0.9-0.9,2.4,0,3.4c0.9,1,2.5,0.9,3.4,0l12.7-12.7L20.6,86.8
	c-0.7,1-0.5,2.3,0.5,3s2.3,0.5,3-0.5l12.3-16.9l-9.6,18.8c-0.5,1-0.1,2.1,0.9,2.6s2.1,0.1,2.6-0.8l10.8-21.3l-7.4,22.9
	c-0.3,0.9,0.2,1.9,1.1,2.2c0.9,0.3,1.9-0.2,2.2-1.1l8.3-25.5L41,96.9c-0.1,0.8,0.4,1.6,1.3,1.7c0.8,0.1,1.6-0.4,1.7-1.3L48.7,68v30
	c0,0.7,0.6,1.3,1.3,1.3S51.3,98.7,51.3,98 M51.6,67.3l4.8,30.4c0.1,0.6,0.7,1,1.2,0.9c0.6-0.1,1-0.7,0.9-1.2L53.8,67
	c-0.1-0.6-0.7-1-1.2-0.9C52,66.2,51.5,66.7,51.6,67.3 M58.2,3.7c0.1-0.5-0.3-0.9-0.7-1c-0.5-0.1-0.9,0.3-1,0.7L51.8,33
	c-0.1,0.5,0.3,0.9,0.7,1c0.5,0.1,0.9-0.3,1-0.7L58.2,3.7z M64.1,9.5C64.3,9,64,8.6,63.5,8.4c-0.5-0.1-1,0.1-1.1,0.6l-8,24.5
	c-0.2,0.5,0.1,1,0.6,1.1c0.5,0.2,1-0.1,1.1-0.6L64.1,9.5z M67.9,16.9c0.2-0.4,0.1-0.9-0.4-1.2s-0.9-0.1-1.2,0.4L57,34.3
	c-0.2,0.4,0,1,0.4,1.2s1,0,1.2-0.4L67.9,16.9z M75.8,16c0.3-0.4,0.2-0.9-0.2-1.2s-0.9-0.2-1.2,0.2l-15,20.7
	c-0.3,0.4-0.2,0.9,0.2,1.2s0.9,0.2,1.2-0.2L75.8,16z M84.8,16.4c0.3-0.3,0.3-0.9,0-1.2s-0.9-0.3-1.2,0L61.5,37.3
	c-0.3,0.3-0.3,0.9,0,1.2s0.9,0.3,1.2,0L84.8,16.4z M86.7,23.3c-0.3-0.4-0.8-0.5-1.2-0.2L63.3,39.2c-0.4,0.3-0.5,0.8-0.2,1.2
	s0.8,0.5,1.2,0.2l22.2-16.1C86.9,24.2,87,23.7,86.7,23.3 M90.5,43.6c-0.1-0.5-0.5-0.8-1-0.7l-22.7,3.6c-0.5,0.1-0.8,0.5-0.7,1
	c0.1,0.5,0.5,0.8,1,0.7l22.7-3.6C90.3,44.5,90.6,44.1,90.5,43.6 M99.3,50c0-0.5-0.4-0.9-0.9-0.9H67.1c-0.5,0-0.9,0.4-0.9,0.9
	s0.4,0.9,0.9,0.9h31.3C98.9,50.9,99.3,50.5,99.3,50"/>
<g class="st0">
	<path class="st4" d="M52.6,68.9v28.5c0,0.9,0.7,1.6,1.6,1.6s1.6-0.7,1.6-1.6V68.9c0-0.9-0.7-1.6-1.6-1.6S52.6,68.1,52.6,68.9"/>
	<path class="st4" d="M58.2,68.1l9,27.5c0.3,0.8,1.2,1.3,2,1s1.3-1.2,1-2l-9-27.6c-0.3-0.8-1.2-1.3-2-1
		C58.3,66.4,57.9,67.3,58.2,68.1"/>
	<path class="st4" d="M63.3,65.6l16.5,22.8c0.5,0.6,1.3,0.8,2,0.3s0.8-1.4,0.3-2L65.5,63.8c-0.5-0.6-1.3-0.8-2-0.3
		C62.9,64,62.8,64.9,63.3,65.6"/>
	<path class="st4" d="M67.3,61.9l21.5,15.6c0.6,0.4,1.5,0.3,1.9-0.3s0.3-1.5-0.3-1.9L68.9,59.7c-0.6-0.5-1.5-0.3-1.9,0.3
		C66.5,60.6,66.7,61.5,67.3,61.9"/>
	<path class="st4" d="M70.1,57.3l23.1,7.5c0.7,0.2,1.5-0.2,1.7-0.9s-0.2-1.5-0.9-1.7l-23-7.5c-0.7-0.2-1.5,0.2-1.7,0.9
		C69,56.3,69.4,57.1,70.1,57.3"/>
	<path class="st4" d="M71.3,51.9h22.1c0.7,0,1.2-0.5,1.2-1.2s-0.5-1.2-1.2-1.2H71.3c-0.7,0-1.2,0.5-1.2,1.2
		C70.1,51.3,70.6,51.9,71.3,51.9"/>
	<path class="st4" d="M71,46.5l18.8-6.2c0.6-0.2,1-0.9,0.8-1.5s-0.9-1-1.5-0.8l-18.8,6.2c-0.6,0.2-1,0.9-0.8,1.5S70.4,46.8,71,46.5"
		/>
	<path class="st4" d="M69,41.4l13.8-10.1c0.5-0.4,0.7-1.1,0.3-1.6S82,29,81.5,29.4L67.7,39.5c-0.5,0.4-0.7,1.1-0.3,1.6
		C67.8,41.7,68.5,41.8,69,41.4"/>
	<path class="st4" d="M65.3,37l9.3-12.7c0.3-0.4,0.2-1-0.2-1.4c-0.4-0.3-1-0.3-1.3,0.2l-9.3,12.7c-0.3,0.4-0.2,1,0.2,1.4
		C64.4,37.5,65,37.4,65.3,37"/>
	<path class="st4" d="M60.6,33.9l4.5-14.1c0.2-0.5-0.1-1-0.6-1.1s-1,0.1-1.2,0.6l-4.5,14.1c-0.2,0.5,0.1,1,0.6,1.2
		C60,34.6,60.5,34.3,60.6,33.9"/>
	<path class="st4" d="M38.9,53.8L8.8,63.6c-0.9,0.3-1.5,1.3-1.2,2.3c0.3,0.9,1.3,1.5,2.3,1.2l30.2-9.8C41,57,41.6,56,41.3,55
		C40.9,54,39.9,53.5,38.9,53.8"/>
	<path class="st4" d="M39.8,59L15,77.1c-0.8,0.6-0.9,1.7-0.4,2.4c0.6,0.8,1.7,0.9,2.4,0.4l24.8-18c0.8-0.6,0.9-1.7,0.4-2.4
		C41.6,58.7,40.5,58.5,39.8,59"/>
	<path class="st4" d="M42.4,63.9L25.2,87.6c-0.5,0.8-0.4,1.8,0.4,2.3c0.8,0.6,1.8,0.4,2.4-0.4l17.2-23.7c0.5-0.8,0.4-1.8-0.4-2.3
		C44,63,43,63.2,42.4,63.9"/>
	<path class="st4" d="M47,67.6l-8.8,27.1c-0.3,0.8,0.2,1.8,1,2s1.8-0.2,2-1L50,68.6c0.3-0.8-0.2-1.8-1-2S47.3,66.7,47,67.6"/>
	<path class="st4" d="M54.2,42.9c1.2,0,2.2-1,2.2-2.3V3.1c0-1.2-1-2.2-2.3-2.2s-2.2,1-2.2,2.3v33.5L41.6,4.9
		c-0.4-1.2-1.6-1.8-2.8-1.4S37,5.1,37.4,6.3l10.5,32.3l-20-27.5C27.2,10.2,26,10,25,10.6s-1.1,1.9-0.5,2.8l20.2,27.8L17.2,21.1
		c-1-0.7-2.3-0.5-3,0.5s-0.5,2.3,0.5,3l27.5,20.1L9.9,34.1c-1.1-0.4-2.3,0.3-2.7,1.3s0.3,2.3,1.3,2.7l32.6,10.6L7,48.8
		c-1.1,0-2,0.9-2,2s0.9,2,2,2h32.9c0.7,0,1.3-0.3,1.7-0.9c0.6-0.9,1.5-4.1,5-6.5C48.7,43.7,51.4,42.9,54.2,42.9z"/>
</g>
<g>
	<path class="st5" d="M33.4,77.8c2.7,7.2,6.4,14,11,20.1c18.7-4.6,35.7-14.4,49.1-28.4c-3-7.1-7-13.6-12-19.6
		C69.4,64.7,52.3,74.6,33.4,77.8z"/>
	<path class="st6" d="M44.4,2.1c-4.6,6.1-8.3,12.9-11,20.1C52.3,25.4,69.4,35.3,81.5,50c4.9-5.9,8.9-12.5,12-19.6
		C80.2,16.5,63.1,6.7,44.4,2.1z"/>
	<path d="M33.4,77.8c-5.8-15.5-6.6-32.5-2.3-48.5c0.7-2.4,1.4-4.8,2.3-7.2c-7.6-1.3-15.3-1.5-22.9-0.5c-5.4,18.5-5.4,38.2,0,56.7
		c3.2,0.4,6.4,0.6,9.6,0.6C24.6,78.9,29,78.6,33.4,77.8z"/>
</g>
</svg>
